<?xml version="1.0" standalone="no"?>
<!DOCTYPE svg PUBLIC "-//W3C//DTD SVG 20010904//EN"
 "http://www.w3.org/TR/2001/REC-SVG-20010904/DTD/svg10.dtd">
<svg version="1.0" xmlns="http://www.w3.org/2000/svg"
 width="512.000000pt" height="512.000000pt" viewBox="0 0 512.000000 512.000000"
 preserveAspectRatio="xMidYMid meet">
<metadata>
Created by potrace 1.14, written by Peter Selinger 2001-2017
</metadata>
<g transform="translate(0.000000,512.000000) scale(0.100000,-0.100000)"
fill="#000000" stroke="none">
<path d="M353 5096 c-171 -55 -299 -194 -340 -366 -20 -86 -18 -4272 2 -4349
19 -69 54 -143 66 -136 5 4 6 -1 3 -9 -4 -11 16 -38 62 -83 77 -76 166 -126
254 -142 80 -15 4254 -14 4323 1 186 39 346 198 385 383 12 55 12 4304 0 4340
-23 71 -51 135 -63 145 -8 7 -15 18 -15 24 0 12 -99 110 -136 134 -35 23 -108
54 -159 68 -42 11 -410 14 -2180 13 l-2130 0 -72 -23z"/>
</g>
</svg>
