<?xml version="1.0" encoding="utf-8"?>
<!-- Generator: Adobe Illustrator 18.1.1, SVG Export Plug-In . SVG Version: 6.00 Build 0)  -->
<!DOCTYPE svg PUBLIC "-//W3C//DTD SVG 1.1//EN" "http://www.w3.org/Graphics/SVG/1.1/DTD/svg11.dtd">
<svg version="1.1" id="_x31_0" xmlns="http://www.w3.org/2000/svg" xmlns:xlink="http://www.w3.org/1999/xlink" x="0px" y="0px"
	 viewBox="0 0 512 512" style="enable-background:new 0 0 512 512;" xml:space="preserve">
<style type="text/css">
	.st0{fill:#000080;}
</style>
<g>
	<path class="st0" d="M270.703,271.549c14.961,7.266,32.703,1.43,40.394-13.281c3.68-7.039,4.496-15.094,2.305-22.68
		c-9.653-33.394-29.137-64.813-56.352-90.871c-14.957-14.294-31.535-26.238-49.282-35.516
		c-63.77-33.332-134.004-27.074-174.774,15.57C6.241,152.744-4.799,191.966,1.921,235.205
		c6.347,40.867,28.074,80.798,61.172,112.434c14.946,14.281,31.519,26.226,49.266,35.504c63.77,33.328,134.009,27.074,174.774-15.57
		c9.59-10.043,17.214-21.602,22.679-34.371c6.329-14.778,0.051-32.226-14.289-39.723c-4.531-2.367-9.633-3.602-14.758-3.558
		c-2.918,0.023-6.27-0.875-9.438-2.535c-1.332-0.695-2.633-1.523-3.871-2.465c-8.09-6.129-9.422-13.449-8.742-14.938
		C259.312,269.467,264,268.295,270.703,271.549z M239.499,255.557c-10.16,13.469-4.156,35.184,13.422,48.504
		c2.347,1.785,4.785,3.324,7.274,4.625c6.836,3.574,14.039,5.321,20.758,5.266c0.473-0.004,0.918,0.078,1.359,0.16
		c0.301,0.051,0.59,0.122,0.879,0.211c0.41,0.133,0.824,0.258,1.199,0.454c3.125,1.636,4.844,5.43,3.328,8.969
		c-4.293,10.023-10.316,19.214-17.957,27.222c-8.512,8.902-18.524,15.742-29.559,20.602c-0.187,0.082-0.367,0.172-0.554,0.254
		c-2.578,1.118-5.222,2.114-7.91,3.016c-0.281,0.094-0.554,0.191-0.836,0.285c-2.773,0.902-5.594,1.699-8.465,2.379
		c-0.09,0.019-0.179,0.039-0.274,0.062c-30.281,7.055-65.629,1.547-98.672-15.722c-15.344-8.02-30.18-18.57-43.789-31.578
		C19.12,272.366,5.967,187.794,50.366,141.377c8.511-8.898,18.523-15.738,29.554-20.602c0.191-0.082,0.375-0.176,0.562-0.258
		c2.578-1.117,5.219-2.109,7.906-3.011c0.282-0.094,0.558-0.195,0.84-0.286c2.774-0.906,5.59-1.703,8.457-2.378
		c0.094-0.02,0.188-0.043,0.282-0.062c30.281-7.055,65.625-1.551,98.668,15.722c15.344,8.016,30.184,18.566,43.794,31.574
		c24.832,23.778,41.726,51.969,49.886,80.184c0.469,1.629,0.27,3.371-0.515,4.874c-1.629,3.114-5.434,4.333-8.598,2.798
		C265.437,242.279,248.117,244.173,239.499,255.557z"/>
	<path class="st0" d="M140.644,303.025c-4.27,1.34-7.934,4.363-10.008,8.332c-2.074,3.969-2.465,8.707-1.153,13.02
		c1.34,4.266,4.387,7.89,8.356,9.965c3.969,2.074,8.726,2.527,12.996,1.195c4.289-1.383,7.918-4.434,9.992-8.402
		c2.074-3.965,2.504-8.68,1.168-12.95C159.343,305.604,149.206,300.307,140.644,303.025z"/>
	<path class="st0" d="M131.206,156.169c-2.969-12.438-15.458-20.082-27.93-17.058c-12.438,2.969-20.082,15.457-17.024,27.867
		c1.59,6.801,6.047,12.11,11.73,15.078c4.801,2.511,10.462,3.382,16.164,2.038C126.526,181.095,134.171,168.611,131.206,156.169z"/>
	<path class="st0" d="M95.249,211.783c-0.098-12.801-10.554-23.039-23.297-22.914c-12.832,0.156-23.07,10.61-22.946,23.356
		c0.074,8.839,5.114,16.469,12.434,20.293c3.282,1.714,6.958,2.672,10.918,2.648C85.136,234.982,95.433,224.557,95.249,211.783z"/>
	<path class="st0" d="M83.925,259.569c-8.477,6.066-10.383,17.878-4.316,26.359c1.789,2.527,4.078,4.449,6.617,5.778
		c3.578,1.87,7.664,2.382,11.645,1.758c0.042-0.008,0.082-0.016,0.121-0.023c1.758-0.29,3.454-0.836,5.102-1.633
		c0.246-0.122,0.485-0.25,0.726-0.383c0.73-0.39,1.504-0.652,2.192-1.152c8.503-6.106,10.457-17.902,4.347-26.402
		C104.292,255.389,92.429,253.459,83.925,259.569z"/>
	<path class="st0" d="M167.46,150.985c-5.797,1.813-10.75,6.016-13.566,11.402c-2.816,5.387-3.406,11.79-1.59,17.59
		c1.82,5.797,5.926,10.778,11.375,13.625c5.386,2.817,11.82,3.348,17.617,1.531c5.801-1.82,10.782-5.93,13.598-11.316
		c2.817-5.387,3.375-11.883,1.559-17.68C192.757,154.518,179.113,147.385,167.46,150.985z"/>
	<path class="st0" d="M507.461,41.325c-10.883,3.242-33.168,9.938-50.645,24.805c-0.043,0.035-0.086,0.07-0.129,0.106
		c-8.859,7.57-16.492,17.206-20.703,29.652c-6.902,20.383,1.305,38.164,17.05,43.496c10.778,3.653,23.188,0.649,31.543-8.242
		c0.07-0.074,0.141-0.149,0.207-0.223c1.191-1.293,2.289-2.691,3.289-4.23c0.047-0.074,0.09-0.156,0.137-0.226
		c2.074-3.262,3.805-6.93,4.794-11.262c6.578-28.859,14.808-56.52,18.832-69.45C512.673,43.056,510.165,40.517,507.461,41.325z"/>
	<path class="st0" d="M413.692,255.611c-8.184-2.77-16.161-6.117-23.938-9.894c-0.555-0.282-1.145-0.508-1.696-0.797
		c-0.003,0.008-0.003,0.015-0.007,0.019c-0.047-0.023-0.098-0.042-0.145-0.066c-1.066,3.493-2.125,6.989-3.106,10.473
		l-53.289,186.27c-3.966,12.789,0.168,25.348,9.206,28.41l0.614,0.207c0.598,0.202,1.218,0.242,1.832,0.351
		c0.351,0.066,0.695,0.168,1.051,0.203c0.644,0.062,1.297,0.039,1.949,0.008c0.394-0.016,0.782-0.035,1.18-0.082
		c0.675-0.09,1.343-0.218,2.019-0.398c0.336-0.094,0.676-0.207,1.016-0.324c0.738-0.246,1.469-0.512,2.191-0.867
		c0.031-0.016,0.062-0.02,0.094-0.035c0.062-0.031,0.118-0.086,0.18-0.118c1.246-0.633,2.453-1.422,3.625-2.347
		c0.207-0.164,0.41-0.336,0.614-0.508c1.05-0.879,2.042-1.871,2.996-2.973c0.164-0.191,0.332-0.367,0.492-0.562
		c2.152-2.633,4.015-5.734,5.336-9.316l70.859-180.326c1.137-2.859,2.227-5.773,3.317-8.683c0.156-0.402,0.313-0.809,0.469-1.215
		l0.082-0.144c-0.007,0-0.015-0.004-0.023-0.004c0.016-0.035,0.027-0.066,0.039-0.102h-0.008c0.004-0.016,0.012-0.035,0.02-0.051
		C431.543,260.974,422.516,258.6,413.692,255.611z"/>
	<path class="st0" d="M455.321,153.904l-12.93-4.379c-0.657-0.222-1.336-0.281-2.008-0.39c-0.262-0.047-0.512-0.125-0.774-0.156
		c-0.66-0.066-1.32-0.043-1.98-0.012c-0.348,0.016-0.7,0.023-1.047,0.066c-0.676,0.082-1.348,0.215-2.023,0.394
		c-0.305,0.082-0.61,0.176-0.918,0.278c-0.73,0.242-1.449,0.512-2.164,0.855c-0.05,0.027-0.102,0.035-0.152,0.062
		c-0.078,0.039-0.149,0.106-0.227,0.145c-1.152,0.586-2.262,1.309-3.339,2.156c-0.18,0.141-0.352,0.278-0.528,0.426
		c-1.023,0.851-1.992,1.808-2.918,2.874c-0.114,0.133-0.23,0.254-0.344,0.391c-2.031,2.449-3.789,5.347-5.027,8.691l-18.633,42.703
		c-0.558,1.5-1.027,3.023-1.57,4.527c-2.328,6.43-4.641,13.074-7.008,20.227c-0.117,0.359-0.254,0.718-0.371,1.078
		c16.754,8.606,34.723,14.688,53.25,18.07c0.59-1.683,1.098-3.394,1.68-5.082c1.93-5.598,3.71-10.981,5.351-16.172
		c0.5-1.586,1.078-3.145,1.57-4.734l11.141-45.238C468.055,168.693,464.07,156.869,455.321,153.904z"/>
</g>
</svg>
