<?xml version="1.0" encoding="utf-8"?>
<!-- Generator: Adobe Illustrator 18.1.1, SVG Export Plug-In . SVG Version: 6.00 Build 0)  -->
<!DOCTYPE svg PUBLIC "-//W3C//DTD SVG 1.1//EN" "http://www.w3.org/Graphics/SVG/1.1/DTD/svg11.dtd">
<svg version="1.1" id="_x31_0" xmlns="http://www.w3.org/2000/svg" xmlns:xlink="http://www.w3.org/1999/xlink" x="0px" y="0px"
	 viewBox="0 0 512 512" style="enable-background:new 0 0 512 512;" xml:space="preserve">
<style type="text/css">
	.st0{fill:#000080;}
</style>
<g>
	<path class="st0" d="M501.598,42.56H10.398C4.641,42.56,0,47.201,0,52.963v405.996c0,5.762,4.641,10.481,10.398,10.481h491.199
		c5.762,0,10.402-4.719,10.402-10.481V52.963C512,47.201,507.359,42.56,501.598,42.56z M252.558,108.643
		c0-14.242,11.602-25.84,25.84-25.84c14.32,0,25.922,11.598,25.922,25.84c0,14.32-11.602,25.918-25.922,25.918
		C264.16,134.56,252.558,122.963,252.558,108.643z M326.558,108.643c0-14.242,11.52-25.84,25.84-25.84
		c14.32,0,25.922,11.598,25.922,25.84c0,14.32-11.602,25.918-25.922,25.918C338.078,134.56,326.558,122.963,326.558,108.643z
		 M400.481,108.643c0-14.242,11.598-25.84,25.918-25.84c14.242,0,25.84,11.598,25.84,25.84c0,14.32-11.598,25.918-25.84,25.918
		C412.078,134.56,400.481,122.963,400.481,108.643z M456,168.08v244.77v0.59H56V168.08h398.938H456z"/>
	<path class="st0" d="M131.957,307.279l68.832,34.282c1.317,0.617,2.454,0.969,3.469,1.07l0.594,0.035
		c1.794,0,3.395-0.848,4.512-2.39c0.789-1.094,1.286-2.512,1.566-4.458c0.199-1.394,0.309-3.316,0.309-5.766
		c0-2.644-0.07-4.738-0.191-6.293c-0.153-1.824-0.426-3.289-0.84-4.477c-0.57-1.644-1.481-2.934-2.711-3.839
		c-0.742-0.547-1.695-1.11-2.879-1.661l-26.266-12.179l-16.472-7.75l43.832-20.546c1.004-0.504,1.82-1.028,2.523-1.622
		c1.019-0.878,1.77-2.133,2.222-3.726c0.321-1.125,0.527-2.515,0.637-4.254c0.094-1.496,0.145-3.52,0.145-6.078
		c0-4.504-0.516-7.348-1.668-9.218c-1.141-1.86-3.027-2.922-5.176-2.922c-1.168,0-2.363,0.301-3.683,0.938L131.836,280.6
		c-0.91,0.523-1.703,1.242-2.355,2.137c-0.641,0.874-1.122,1.961-1.426,3.222c-0.21,0.883-0.394,2.012-0.538,3.39
		c-0.133,1.282-0.199,2.778-0.199,4.489c0,3.41,0.23,5.973,0.706,7.851C128.695,304.303,129.953,306.15,131.957,307.279z"/>
	<path class="st0" d="M216.359,374.814c1.258,0.746,2.883,1.266,4.969,1.586c1.711,0.266,3.914,0.406,6.614,0.406
		c2.156,0,3.942-0.086,5.351-0.25c1.586-0.187,2.914-0.469,4.07-0.867c1.442-0.5,2.629-1.211,3.543-2.121
		c0.871-0.879,1.566-1.981,2.098-3.367l53.578-150.79c0.468-1.59,0.598-3.078,0.382-4.418c-0.218-1.336-0.949-3.218-3.195-4.602
		c-1.25-0.77-2.863-1.301-4.934-1.621c-1.68-0.266-3.898-0.41-6.664-0.41c-2.086,0-3.859,0.09-5.332,0.25
		c-1.672,0.188-3.035,0.477-4.172,0.883c-1.438,0.516-2.629,1.266-3.531,2.226c-0.902,0.957-1.574,2.133-1.942,3.332
		l-53.598,150.504c-0.586,1.653-0.766,3.203-0.543,4.598C213.359,372.072,214.527,373.724,216.359,374.814z"/>
	<path class="st0" d="M306.453,314.525c-1.183,0.492-2.133,1.082-2.878,1.786c-0.969,0.89-1.684,2.133-2.125,3.679
		c-0.321,1.125-0.528,2.516-0.637,4.254c-0.094,1.497-0.141,3.52-0.141,6.074c0,2,0.09,3.645,0.254,4.946
		c0.226,1.781,0.691,3.191,1.426,4.324c1.055,1.618,2.633,2.606,4.426,2.782l0.633,0.031c1.187,0,2.402-0.321,3.699-0.969
		l68.535-33.961c1.09-0.465,2.027-1.227,2.781-2.258c0.625-0.855,1.098-1.886,1.45-3.171c0.25-0.942,0.457-2.098,0.606-3.489
		c0.129-1.25,0.199-2.73,0.199-4.445c0-3.442-0.27-6.063-0.829-8.012c-0.785-2.715-2.136-4.527-3.898-5.336l-68.839-34.332
		c-1.286-0.641-2.442-1.004-4.11-1.145c-1.813,0-3.426,0.844-4.551,2.387c-0.808,1.125-1.297,2.574-1.531,4.558
		c-0.16,1.367-0.25,3.258-0.25,5.668c0,2.614,0.046,4.683,0.141,6.203c0.113,1.859,0.374,3.351,0.789,4.546
		c0.566,1.653,1.481,2.954,2.711,3.852c0.824,0.61,1.828,1.164,2.976,1.664l26.192,12.145l16.546,7.785L306.453,314.525z"/>
</g>
</svg>
